<?xml version="1.0" standalone="no"?>
<!DOCTYPE svg PUBLIC "-//W3C//DTD SVG 20010904//EN"
 "http://www.w3.org/TR/2001/REC-SVG-20010904/DTD/svg10.dtd">
<svg version="1.0" xmlns="http://www.w3.org/2000/svg"
 width="193.000000pt" height="193.000000pt" viewBox="0 0 193.000000 193.000000"
 preserveAspectRatio="xMidYMid meet">
<g transform="translate(0.000000,193.000000) scale(0.100000,-0.100000)"
fill="#000000" stroke="none">
<path d="M1102 1778 c-16 -16 -15 -28 3 -28 8 0 15 9 15 20 0 23 -2 24 -18 8z"/>
<path d="M815 1762 c-43 -15 -156 -86 -205 -129 -80 -70 -140 -139 -140 -159
0 -13 -4 -24 -8 -24 -20 0 -47 -88 -56 -180 -4 -42 -4 -43 8 -18 11 26 13 27
29 11 11 -11 17 -13 17 -5 0 7 -4 12 -9 12 -10 0 -21 36 -13 44 3 3 11 1 19
-6 7 -6 17 -8 20 -4 4 4 1 11 -7 16 -11 7 -8 10 13 10 15 0 27 -5 27 -13 0 -9
11 -12 35 -9 42 5 47 22 6 22 -17 0 -33 5 -37 11 -3 6 -19 9 -35 7 -19 -3 -29
0 -29 8 0 7 -2 21 -5 31 -3 11 -1 9 6 -4 14 -27 25 -29 33 -7 3 8 2 12 -4 9
-6 -3 -10 -1 -10 5 0 6 7 13 15 16 8 4 12 10 9 15 -3 5 -10 6 -16 3 -8 -5 -9
-1 -5 10 4 10 7 20 7 22 0 3 5 2 10 -1 13 -8 13 1 -1 26 -9 18 -8 19 9 10 24
-13 32 -6 33 28 1 15 3 19 6 10 5 -19 60 -29 90 -18 11 5 0 8 -31 8 -39 1 -46
4 -37 14 6 8 8 17 4 20 -3 4 1 7 11 7 9 0 14 5 11 10 -8 13 40 31 60 24 18 -7
19 0 5 27 -8 15 -7 19 5 19 8 0 15 5 15 10 0 6 5 10 11 10 5 0 7 -5 3 -12 -5
-8 -2 -9 10 -5 10 4 21 7 24 7 4 0 0 5 -8 10 -13 8 -12 11 5 24 11 9 26 13 33
11 7 -3 11 -1 8 3 -3 5 8 16 25 26 19 11 29 13 29 5 0 -8 4 -8 13 -2 18 15 56
22 62 13 3 -4 21 -4 41 0 26 6 34 5 31 -4 -3 -8 5 -12 22 -11 14 1 35 -2 47
-6 11 -4 28 -2 39 3 15 9 17 8 12 -5 -4 -10 2 -17 16 -21 36 -9 67 -7 67 6 0
6 10 3 22 -8 12 -10 18 -13 14 -6 -9 16 -2 15 66 -6 54 -17 98 -45 98 -64 0
-4 -5 -8 -11 -8 -5 0 -7 5 -4 10 3 6 0 10 -9 10 -8 0 -16 5 -18 10 -2 6 -14
12 -27 15 -13 2 -20 1 -17 -3 4 -4 13 -7 19 -7 7 0 19 -15 27 -32 8 -18 20
-33 25 -33 15 0 37 -39 29 -52 -4 -7 -3 -8 4 -4 14 9 14 9 3 -32 -6 -20 -6
-30 0 -27 5 4 9 14 9 23 1 15 2 15 15 -2 8 -11 15 -25 15 -30 0 -6 -4 -5 -9 2
-5 8 -7 -11 -7 -47 2 -59 1 -61 -24 -62 -25 -2 -25 -2 -1 -6 21 -4 23 -8 17
-51 -17 -124 -31 -192 -38 -192 -4 0 -8 -22 -8 -50 0 -27 -4 -50 -10 -50 -5 0
-7 8 -4 18 5 14 3 14 -10 -2 -19 -23 -22 -51 -4 -40 6 4 3 -4 -8 -18 -19 -26
-34 -21 -34 12 0 13 1 13 10 0 14 -21 13 5 0 31 -7 11 -7 19 -1 19 5 0 12 -6
15 -12 4 -7 4 -2 0 12 -25 110 -35 124 -80 117 -17 -3 -37 0 -43 6 -8 8 -11 8
-11 -1 0 -7 6 -15 14 -18 8 -3 26 -24 41 -46 15 -22 21 -37 14 -33 -9 6 -10 3
-6 -9 4 -10 7 -25 8 -34 0 -9 5 -3 10 13 10 34 -4 80 -27 89 -18 7 -18 26 0
26 20 0 56 -48 56 -75 0 -13 -10 -54 -23 -92 -15 -43 -21 -76 -16 -89 7 -16 8
-17 8 -1 1 18 21 25 21 6 0 -5 5 -7 11 -3 8 5 6 10 -5 16 -19 10 -21 34 -4 44
6 4 8 3 4 -4 -7 -12 12 -11 33 2 11 7 13 5 8 -8 -6 -14 -3 -17 8 -12 9 3 18
-1 21 -9 3 -8 26 -17 50 -21 35 -5 44 -10 39 -22 -5 -13 -3 -13 11 -1 14 11
18 11 28 -3 8 -10 20 -15 33 -12 12 3 27 -2 38 -12 17 -17 44 -19 175 -12 32
2 49 -3 72 -22 10 -8 35 -17 56 -20 20 -3 36 -10 35 -15 -1 -6 9 -15 22 -21
19 -9 22 -8 20 5 -2 9 -4 18 -4 21 -1 7 -45 29 -125 64 -64 29 -99 32 -156 15
-33 -10 -44 -8 -91 13 -30 13 -89 35 -131 49 -43 13 -78 29 -78 34 0 6 6 19
14 30 25 37 58 179 69 300 17 190 16 204 -19 271 -17 32 -34 71 -38 86 -3 15
-21 38 -39 51 -29 22 -44 26 -102 27 -10 1 -25 6 -32 11 -6 6 -30 9 -52 8 -23
-2 -46 2 -53 9 -15 15 -44 16 -53 2 -3 -5 -10 -10 -16 -10 -5 0 -9 5 -9 10 0
6 7 10 15 10 8 0 15 7 15 15 0 12 -4 13 -18 6 -12 -6 -42 -7 -83 -1 -78 12
-65 13 -124 -8z"/>
<path d="M785 1710 c-3 -5 -1 -10 4 -10 6 0 11 5 11 10 0 6 -2 10 -4 10 -3 0
-8 -4 -11 -10z"/>
<path d="M680 1610 c8 -5 20 -10 25 -10 6 0 3 5 -5 10 -8 5 -19 10 -25 10 -5
0 -3 -5 5 -10z"/>
<path d="M598 1533 c6 -2 18 -2 25 0 6 3 1 5 -13 5 -14 0 -19 -2 -12 -5z"/>
<path d="M1240 1500 c0 -5 5 -10 10 -10 6 0 10 5 10 10 0 6 -4 10 -10 10 -5 0
-10 -4 -10 -10z"/>
<path d="M540 1479 c0 -5 5 -7 12 -3 8 5 9 2 5 -9 -5 -14 -3 -15 13 -4 18 11
19 12 2 19 -25 10 -32 9 -32 -3z"/>
<path d="M608 1453 c7 -3 16 -2 19 1 4 3 -2 6 -13 5 -11 0 -14 -3 -6 -6z"/>
<path d="M668 1453 c7 -3 16 -2 19 1 4 3 -2 6 -13 5 -11 0 -14 -3 -6 -6z"/>
<path d="M625 1330 c3 -5 14 -10 23 -10 15 0 15 2 2 10 -20 13 -33 13 -25 0z"/>
<path d="M492 1281 c-20 -12 -42 -60 -36 -76 3 -7 12 -16 20 -19 10 -4 14 2
14 21 0 21 -2 24 -15 13 -10 -8 -15 -9 -15 -2 0 6 14 21 30 34 39 28 40 54 2
29z"/>
<path d="M951 1274 c0 -11 3 -14 6 -6 3 7 2 16 -1 19 -3 4 -6 -2 -5 -13z"/>
<path d="M786 1205 c4 -8 10 -12 15 -9 11 6 2 24 -11 24 -5 0 -7 -7 -4 -15z"/>
<path d="M434 1154 c-4 -31 -2 -54 7 -71 8 -14 14 -31 14 -37 1 -13 13 -44 26
-70 6 -10 6 -16 1 -12 -5 3 -15 -11 -23 -30 -11 -29 -25 -41 -76 -64 -93 -42
-118 -64 -176 -148 -58 -87 -177 -316 -177 -343 0 -10 -4 -20 -9 -23 -10 -7
-21 -56 -12 -56 18 1 31 20 46 70 9 30 22 69 28 85 7 17 11 33 9 37 -1 4 5 5
13 2 11 -5 13 -2 8 12 -4 12 -3 15 5 10 8 -5 10 -2 6 8 -4 9 -1 16 6 16 7 0
10 7 7 15 -4 8 -1 17 5 21 7 5 8 2 3 -6 -5 -8 -3 -11 6 -8 7 2 17 20 22 39 9
37 45 82 58 73 5 -3 6 2 3 10 -10 25 71 140 94 134 14 -4 52 14 47 22 -6 9 44
24 53 15 3 -3 -3 -5 -13 -5 -17 0 -17 -1 0 -20 15 -17 16 -24 7 -46 -7 -13
-12 -30 -11 -37 0 -7 4 -2 9 11 10 24 29 30 31 10 6 -74 10 -93 19 -96 5 -2
10 -14 10 -26 0 -12 8 -31 18 -42 9 -10 18 -27 20 -38 4 -21 42 -65 42 -48 0
22 -32 92 -40 87 -9 -5 -33 55 -25 63 2 3 -2 14 -10 26 -8 11 -15 34 -15 51 0
17 -4 35 -10 41 -5 5 -13 32 -16 58 -6 39 -4 47 6 41 9 -6 11 -4 5 5 -6 10 -4
12 7 7 9 -3 15 0 15 6 -1 7 9 34 22 60 24 51 18 77 -18 77 -13 0 -13 2 -3 9
11 7 9 16 -12 48 -20 30 -25 47 -20 71 4 18 4 32 1 32 -3 0 -9 -21 -13 -46z
m66 -144 c0 -5 -5 -10 -11 -10 -5 0 -7 5 -4 10 3 6 8 10 11 10 2 0 4 -4 4 -10z"/>
<path d="M1340 1163 c-3 -23 -2 -39 3 -34 5 5 7 24 5 42 -3 33 -4 33 -8 -8z"/>
<path d="M1208 1153 c7 -3 16 -2 19 1 4 3 -2 6 -13 5 -11 0 -14 -3 -6 -6z"/>
<path d="M1150 1088 c0 -9 5 -20 10 -23 6 -4 8 -11 5 -16 -4 -5 -1 -9 4 -9 16
0 13 23 -4 46 -13 17 -14 17 -15 2z"/>
<path d="M542 1062 c-35 -5 -21 -26 22 -33 26 -4 42 -2 52 8 8 8 14 10 14 5 0
-11 99 -32 105 -22 7 12 -7 20 -36 20 -15 0 -29 5 -31 11 -3 10 -82 17 -126
11z"/>
<path d="M1070 1014 c0 -8 5 -12 10 -9 6 4 8 11 5 16 -9 14 -15 11 -15 -7z"/>
<path d="M1170 1007 c19 -14 38 -23 43 -20 11 7 8 33 -4 33 -5 0 -7 -4 -4 -10
3 -5 2 -10 -4 -10 -5 0 -11 4 -13 9 -1 4 -14 12 -28 16 -21 6 -19 3 10 -18z"/>
<path d="M1042 997 c3 -15 1 -30 -3 -33 -15 -9 -10 -34 6 -28 11 4 13 16 9 42
-3 21 -8 39 -11 42 -3 3 -3 -7 -1 -23z"/>
<path d="M1117 996 c3 -14 11 -27 19 -30 20 -8 17 18 -5 38 -17 16 -18 16 -14
-8z"/>
<path d="M548 980 c2 -16 9 -30 14 -30 5 0 6 10 3 23 -11 35 -22 40 -17 7z"/>
<path d="M578 998 c-6 -17 51 -63 62 -52 6 6 -4 20 -25 37 -21 17 -35 22 -37
15z"/>
<path d="M530 962 c0 -8 -10 -27 -21 -44 -15 -20 -18 -33 -11 -40 6 -6 12 -6
16 1 4 6 2 11 -4 11 -6 0 -8 5 -5 10 5 8 11 7 21 -1 12 -10 13 -9 8 6 -4 10
-1 20 6 25 9 6 10 12 1 26 -6 12 -11 14 -11 6z"/>
<path d="M692 962 c-7 -2 -12 -9 -12 -16 0 -8 12 -11 35 -8 19 2 35 8 35 12 0
9 -41 18 -58 12z"/>
<path d="M1170 953 c0 -15 2 -15 24 -7 22 9 20 20 -4 20 -11 0 -20 -6 -20 -13z"/>
<path d="M1140 935 c0 -11 -5 -15 -15 -11 -10 4 -15 -1 -15 -15 0 -14 5 -19
16 -17 20 4 38 45 24 53 -6 4 -10 -1 -10 -10z"/>
<path d="M982 928 c-7 -7 -12 -18 -12 -25 0 -7 -7 -13 -15 -13 -8 0 -15 -4
-15 -10 0 -27 45 5 53 38 6 25 5 26 -11 10z"/>
<path d="M640 920 c0 -5 10 -10 23 -10 18 0 19 2 7 10 -19 13 -30 13 -30 0z"/>
<path d="M557 883 c3 -7 6 -13 8 -13 2 0 5 6 8 13 3 8 -1 14 -8 14 -7 0 -11
-6 -8 -14z"/>
<path d="M1210 859 c0 -5 5 -7 10 -4 6 3 10 8 10 11 0 2 -4 4 -10 4 -5 0 -10
-5 -10 -11z"/>
<path d="M476 845 c-3 -8 -1 -15 4 -15 6 0 10 7 10 15 0 8 -2 15 -4 15 -2 0
-6 -7 -10 -15z"/>
<path d="M578 849 c-3 -8 -1 -22 3 -31 5 -9 6 -24 3 -32 -7 -17 -39 -22 -48
-7 -3 5 -19 14 -35 19 -23 8 -29 8 -25 -1 7 -20 73 -44 105 -39 25 4 29 9 29
36 0 37 -24 78 -32 55z"/>
<path d="M678 833 c7 -3 16 -2 19 1 4 3 -2 6 -13 5 -11 0 -14 -3 -6 -6z"/>
<path d="M1505 830 c-16 -7 -17 -9 -3 -9 9 -1 20 4 23 9 7 11 7 11 -20 0z"/>
<path d="M390 826 c0 -2 8 -10 18 -17 15 -13 16 -12 3 4 -13 16 -21 21 -21 13z"/>
<path d="M1108 813 c-10 -2 -18 -10 -18 -18 0 -10 5 -11 25 -2 14 7 25 15 25
20 0 7 -4 7 -32 0z"/>
<path d="M1300 764 c0 -43 -8 -74 -31 -126 -18 -37 -35 -68 -39 -68 -4 0 -7
-7 -7 -15 0 -8 4 -15 9 -15 4 0 8 7 8 15 0 8 3 15 8 15 8 0 33 45 56 104 18
43 21 132 6 141 -6 4 -10 -15 -10 -51z"/>
<path d="M280 759 c0 -5 5 -7 10 -4 6 3 10 8 10 11 0 2 -4 4 -10 4 -5 0 -10
-5 -10 -11z"/>
<path d="M1188 763 c7 -3 16 -2 19 1 4 3 -2 6 -13 5 -11 0 -14 -3 -6 -6z"/>
<path d="M427 741 c-4 -17 -3 -21 5 -13 5 5 8 16 6 23 -3 8 -7 3 -11 -10z"/>
<path d="M537 719 c4 -12 17 -22 34 -26 16 -3 29 -12 29 -19 0 -8 5 -14 10
-14 16 0 12 15 -9 34 -11 10 -24 15 -30 12 -5 -4 -12 3 -16 14 -8 26 -25 26
-18 -1z"/>
<path d="M510 676 c0 -16 38 -33 95 -41 30 -5 36 -4 25 4 -8 6 -24 11 -35 11
-11 0 -31 9 -45 20 -30 23 -40 25 -40 6z"/>
<path d="M215 649 c-4 -6 -5 -12 -2 -15 2 -3 7 2 10 11 7 17 1 20 -8 4z"/>
<path d="M308 633 c5 -21 7 -23 10 -9 2 10 0 22 -6 28 -6 6 -7 0 -4 -19z"/>
<path d="M656 642 c-3 -6 -1 -14 5 -17 14 -9 20 -2 10 14 -6 8 -11 9 -15 3z"/>
<path d="M555 610 c-8 -13 3 -30 20 -30 8 0 13 9 12 20 -1 21 -21 27 -32 10z"/>
<path d="M610 585 c0 -8 5 -15 10 -15 6 0 10 7 10 15 0 8 -4 15 -10 15 -5 0
-10 -7 -10 -15z"/>
<path d="M1196 523 c-4 -13 -15 -23 -24 -24 -14 0 -13 -2 3 -8 15 -6 22 -3 28
12 4 11 6 25 4 31 -2 6 -7 1 -11 -11z"/>
<path d="M141 514 c0 -11 3 -14 6 -6 3 7 2 16 -1 19 -3 4 -6 -2 -5 -13z"/>
<path d="M785 500 c-3 -5 -1 -10 5 -10 6 0 24 -13 40 -28 15 -16 34 -29 42
-30 7 0 30 -4 51 -8 21 -4 37 -3 37 3 0 5 -16 10 -36 11 -44 3 -90 26 -107 52
-13 22 -23 25 -32 10z"/>
<path d="M608 493 c7 -3 16 -2 19 1 4 3 -2 6 -13 5 -11 0 -14 -3 -6 -6z"/>
<path d="M640 488 c0 -10 55 -8 95 2 22 6 14 7 -32 6 -35 0 -63 -4 -63 -8z"/>
<path d="M1140 470 c-13 -8 -12 -10 3 -10 9 0 17 5 17 10 0 12 -1 12 -20 0z"/>
<path d="M1070 449 c-8 -5 -25 -9 -37 -9 -13 0 -23 -4 -23 -10 0 -12 33 -13
46 -1 5 5 18 11 29 13 11 2 15 6 10 10 -6 4 -17 3 -25 -3z"/>
<path d="M472 400 c0 -14 2 -19 5 -12 2 6 2 18 0 25 -3 6 -5 1 -5 -13z"/>
<path d="M20 271 c0 -6 5 -13 10 -16 6 -3 10 1 10 9 0 9 -4 16 -10 16 -5 0
-10 -4 -10 -9z"/>
</g>
</svg>
